<?xml version="1.0" encoding="UTF-8" standalone="no"?><svg xmlns="http://www.w3.org/2000/svg" xmlns:xlink="http://www.w3.org/1999/xlink" contentScriptType="application/ecmascript" contentStyleType="text/css" height="557px" preserveAspectRatio="none" style="width:611px;height:557px;background:#FFFFFF;" version="1.1" viewBox="0 0 611 557" width="611px" zoomAndPan="magnify"><defs><filter height="300%" id="f4h2dwxpndv9j" width="300%" x="-1" y="-1"><feGaussianBlur result="blurOut" stdDeviation="2.0"/><feColorMatrix in="blurOut" result="blurOut2" type="matrix" values="0 0 0 0 0 0 0 0 0 0 0 0 0 0 0 0 0 0 .4 0"/><feOffset dx="4.0" dy="4.0" in="blurOut2" result="blurOut3"/><feBlend in="SourceGraphic" in2="blurOut3" mode="normal"/></filter></defs><g><!--MD5=[90e37e8d731bd0e9ac3eab5168088f79]
cluster Encuentros virtuales--><rect fill="#FFFFFF" filter="url(#f4h2dwxpndv9j)" height="446" style="stroke:#000000;stroke-width:1.5;" width="490" x="109" y="7"/><text fill="#000000" font-family="sans-serif" font-size="14" font-weight="bold" lengthAdjust="spacing" textLength="147" x="280.5" y="23.5332">Encuentros virtuales</text><ellipse cx="212.7877" cy="61.0575" fill="#FEFECE" filter="url(#f4h2dwxpndv9j)" rx="78.2877" ry="18.0575" style="stroke:#A80036;stroke-width:1.5;"/><text fill="#000000" font-family="sans-serif" font-size="14" lengthAdjust="spacing" textLength="110" x="156.0149" y="65.2774">consultar sistema</text><ellipse cx="213.1463" cy="130.0942" fill="#FEFECE" filter="url(#f4h2dwxpndv9j)" rx="61.6463" ry="15.5942" style="stroke:#A80036;stroke-width:1.5;"/><text fill="#000000" font-family="sans-serif" font-size="14" lengthAdjust="spacing" textLength="70" x="175.1463" y="134.6108">conectarse</text><ellipse cx="213.2471" cy="201.0494" fill="#FEFECE" filter="url(#f4h2dwxpndv9j)" rx="88.2471" ry="20.0494" style="stroke:#A80036;stroke-width:1.5;"/><text fill="#000000" font-family="sans-serif" font-size="14" lengthAdjust="spacing" textLength="134" x="146.2471" y="204.7779">salir de un encuentro</text><ellipse cx="212.9267" cy="275.7853" fill="#FEFECE" filter="url(#f4h2dwxpndv9j)" rx="84.4267" ry="19.2853" style="stroke:#A80036;stroke-width:1.5;"/><text fill="#000000" font-family="sans-serif" font-size="14" lengthAdjust="spacing" textLength="125" x="150.4267" y="279.5139">planificar encuentro</text><ellipse cx="500.7363" cy="347.2473" fill="#FEFECE" filter="url(#f4h2dwxpndv9j)" rx="76.7363" ry="17.7473" style="stroke:#A80036;stroke-width:1.5;"/><text fill="#000000" font-family="sans-serif" font-size="14" lengthAdjust="spacing" textLength="106" x="445.2006" y="351.6555">planficar nombre</text><ellipse cx="500.396" cy="275.9792" fill="#FEFECE" filter="url(#f4h2dwxpndv9j)" rx="77.896" ry="17.9792" style="stroke:#A80036;stroke-width:1.5;"/><text fill="#000000" font-family="sans-serif" font-size="14" lengthAdjust="spacing" textLength="109" x="443.9355" y="280.2466">planificar agenda</text><ellipse cx="500.3351" cy="203.867" fill="#FEFECE" filter="url(#f4h2dwxpndv9j)" rx="82.3351" ry="18.867" style="stroke:#A80036;stroke-width:1.5;"/><text fill="#000000" font-family="sans-serif" font-size="14" lengthAdjust="spacing" textLength="120" x="440.3351" y="207.5955">asignar moderador</text><ellipse cx="213.2113" cy="347.1423" fill="#FEFECE" filter="url(#f4h2dwxpndv9j)" rx="71.2113" ry="16.6423" style="stroke:#A80036;stroke-width:1.5;"/><text fill="#000000" font-family="sans-serif" font-size="14" lengthAdjust="spacing" textLength="91" x="164.7113" y="351.6589">asignar turnos</text><ellipse cx="212.8351" cy="417.867" fill="#FEFECE" filter="url(#f4h2dwxpndv9j)" rx="82.3351" ry="18.867" style="stroke:#A80036;stroke-width:1.5;"/><text fill="#000000" font-family="sans-serif" font-size="14" lengthAdjust="spacing" textLength="120" x="152.8351" y="421.5955">terminar encuentro</text><!--MD5=[add1f11cc0a9945b597266d37d500565]
entity usuario--><ellipse cx="34" cy="102" fill="#FEFECE" filter="url(#f4h2dwxpndv9j)" rx="8" ry="8" style="stroke:#A80036;stroke-width:1.5;"/><path d="M34,110 L34,137 M21,118 L47,118 M34,137 L21,152 M34,137 L47,152 " fill="none" filter="url(#f4h2dwxpndv9j)" style="stroke:#A80036;stroke-width:1.5;"/><text fill="#000000" font-family="sans-serif" font-size="14" lengthAdjust="spacing" textLength="47" x="10.5" y="172.0332">usuario</text><!--MD5=[2b2d5ad518bf6746de4ffeb5be0566d4]
entity manager--><ellipse cx="34" cy="227" fill="#FEFECE" filter="url(#f4h2dwxpndv9j)" rx="8" ry="8" style="stroke:#A80036;stroke-width:1.5;"/><path d="M34,235 L34,262 M21,243 L47,243 M34,262 L21,277 M34,262 L47,277 " fill="none" filter="url(#f4h2dwxpndv9j)" style="stroke:#A80036;stroke-width:1.5;"/><text fill="#000000" font-family="sans-serif" font-size="14" lengthAdjust="spacing" textLength="56" x="6" y="297.0332">manager</text><!--MD5=[0366e56313dfaf76571817b0e1289164]
entity moderador--><ellipse cx="500.5" cy="479" fill="#FEFECE" filter="url(#f4h2dwxpndv9j)" rx="8" ry="8" style="stroke:#A80036;stroke-width:1.5;"/><path d="M500.5,487 L500.5,514 M487.5,495 L513.5,495 M500.5,514 L487.5,529 M500.5,514 L513.5,529 " fill="none" filter="url(#f4h2dwxpndv9j)" style="stroke:#A80036;stroke-width:1.5;"/><text fill="#000000" font-family="sans-serif" font-size="14" lengthAdjust="spacing" textLength="69" x="466" y="549.0332">moderador</text><!--MD5=[19f1ecc6bb3a3b63d7c89cd8f0933d0a]
reverse link usuario to manager--><path d="M34,195.97 C34,203.15 34,210.32 34,217.5 " fill="none" id="usuario-backto-manager" style="stroke:#A80036;stroke-width:1.0;stroke-dasharray:7.0,7.0;"/><polygon fill="none" points="27,195.75,34,175.75,41,195.75,27,195.75" style="stroke:#A80036;stroke-width:1.0;"/><!--MD5=[b52fef33e75bf364097b45b32e65ec8c]
link usuario to consultar sistema--><path d="M57.64,119.84 C70.12,112.41 86.08,103.53 101,97 C120.58,88.44 142.88,80.82 162.32,74.82 " fill="none" id="usuario-consultar sistema" style="stroke:#A80036;stroke-width:1.0;"/><!--MD5=[1f0bf56c2dfea1beb8fde1ec0d3ff522]
link usuario to conectarse--><path d="M57.78,133.49 C81.4,132.95 119.33,132.09 151.67,131.36 " fill="none" id="usuario-conectarse" style="stroke:#A80036;stroke-width:1.0;"/><!--MD5=[53f7de6b2d41010145a62de7b085fa95]
link usuario to salir de un encuentro--><path d="M57.71,144.54 C70.35,150.27 86.43,157.31 101,163 C120.55,170.62 142.33,178.26 161.39,184.67 " fill="none" id="usuario-salir de un encuentro" style="stroke:#A80036;stroke-width:1.0;"/><!--MD5=[bc9a4af5df2f63379e2bbc2bb06a55c5]
link manager to planificar encuentro--><path d="M62.27,261.62 C81.66,263.48 108.75,266.08 134.57,268.56 " fill="none" id="manager-planificar encuentro" style="stroke:#A80036;stroke-width:1.0;"/><!--MD5=[8811551b73e6944fd3942a07ee5adc5b]
link planificar encuentro to planficar nombre--><path d="M271.09,290.2 C320.96,302.6 392.97,320.51 442.74,332.88 " fill="none" id="planificar encuentro-to-planficar nombre" style="stroke:#A80036;stroke-width:1.0;stroke-dasharray:7.0,7.0;"/><polygon fill="#A80036" points="447.79,334.14,440.0331,328.0712,442.9401,332.924,438.0874,335.831,447.79,334.14" style="stroke:#A80036;stroke-width:1.0;"/><text fill="#000000" font-family="sans-serif" font-size="13" lengthAdjust="spacing" textLength="55" x="332" y="302.4951">«include»</text><!--MD5=[6e3fd42768acca48befaefb8cc232fe2]
link planificar encuentro to planificar agenda--><path d="M297.73,276 C335.36,276 379.64,276 417.12,276 " fill="none" id="planificar encuentro-to-planificar agenda" style="stroke:#A80036;stroke-width:1.0;stroke-dasharray:7.0,7.0;"/><polygon fill="#A80036" points="422.12,276,413.12,272,417.12,276,413.12,280,422.12,276" style="stroke:#A80036;stroke-width:1.0;"/><text fill="#000000" font-family="sans-serif" font-size="13" lengthAdjust="spacing" textLength="55" x="332" y="272.4951">«include»</text><!--MD5=[ef742edef75f5a906cc781d7a2d1f817]
link planificar encuentro to asignar moderador--><path d="M270.75,261.69 C319.48,249.4 389.55,231.73 439.27,219.19 " fill="none" id="planificar encuentro-to-asignar moderador" style="stroke:#A80036;stroke-width:1.0;stroke-dasharray:7.0,7.0;"/><polygon fill="#A80036" points="444.32,217.92,434.6139,216.2491,439.4727,219.1461,436.5757,224.0048,444.32,217.92" style="stroke:#A80036;stroke-width:1.0;"/><text fill="#000000" font-family="sans-serif" font-size="13" lengthAdjust="spacing" textLength="55" x="332" y="230.4951">«include»</text><!--MD5=[694c138ddc2057790550bd6308fe4489]
link asignar turnos to moderador--><path d="M253.74,360.55 C268.84,366.21 286.01,373.27 301,381 C333.86,397.95 418.23,455.04 465.72,487.65 " fill="none" id="asignar turnos-moderador" style="stroke:#A80036;stroke-width:1.0;"/><!--MD5=[9f338f44147ad882f73bbb3f5bbe2d96]
link terminar encuentro to moderador--><path d="M261.47,433.46 C319.18,452.26 415.14,483.52 465.8,500.02 " fill="none" id="terminar encuentro-moderador" style="stroke:#A80036;stroke-width:1.0;"/><!--MD5=[4fbe2652c3ccb41f518e6e60607f51ec]
@startuml
'https://plantuml.com/use-case-diagram
left to right direction

actor usuario
actor manager
usuario <|. manager
actor moderador
rectangle "Encuentros virtuales" {
    usuario - - (consultar sistema)
    usuario - - (conectarse)
    usuario - - (salir de un encuentro)

    manager - - (planificar encuentro)
    (planificar encuentro) ..> (planficar nombre): <<include>>
    (planificar encuentro) ..> (planificar agenda): <<include>>
    (planificar encuentro) ..> (asignar moderador): <<include>>

    (asignar turnos) - - moderador
    (terminar encuentro) - - moderador
}



@enduml

@startuml
left to right direction

actor usuario
actor manager
usuario <|. manager
actor moderador
rectangle "Encuentros virtuales" {
    usuario - - (consultar sistema)
    usuario - - (conectarse)
    usuario - - (salir de un encuentro)

    manager - - (planificar encuentro)
    (planificar encuentro) ..> (planficar nombre): <<include>>
    (planificar encuentro) ..> (planificar agenda): <<include>>
    (planificar encuentro) ..> (asignar moderador): <<include>>

    (asignar turnos) - - moderador
    (terminar encuentro) - - moderador
}



@enduml

PlantUML version 1.2022.0(Tue Jan 11 17:16:42 CET 2022)
(GPL source distribution)
Java Runtime: OpenJDK Runtime Environment
JVM: OpenJDK 64-Bit Server VM
Default Encoding: Cp1252
Language: es
Country: ES
--></g></svg>